<svg width="34" height="34" viewBox="0 0 34 34" fill="none" xmlns="http://www.w3.org/2000/svg">
<path d="M5.1 27.2V33.6022L7.6755 32.0569L15.7709 27.2H23.8C25.6751 27.2 27.2 25.6751 27.2 23.8V10.2C27.2 8.32495 25.6751 6.80005 23.8 6.80005H3.4C1.5249 6.80005 0 8.32495 0 10.2V23.8C0 25.6751 1.5249 27.2 3.4 27.2H5.1ZM3.4 10.2H23.8V23.8H14.8291L8.5 27.5978V23.8H3.4V10.2Z" fill="#B3B5CE"/>
<path d="M30.5998 0H10.1998C8.3247 0 6.7998 1.5249 6.7998 3.4H27.1998C29.0749 3.4 30.5998 4.9249 30.5998 6.8V20.4C32.4749 20.4 33.9998 18.8751 33.9998 17V3.4C33.9998 1.5249 32.4749 0 30.5998 0Z" fill="#B3B5CE"/>
</svg>
