<svg width="39" height="33" viewBox="0 0 39 33" fill="none" xmlns="http://www.w3.org/2000/svg">
<path d="M10.8936 24.853L12.6933 30.3888C12.7445 30.5466 12.8363 30.6882 12.9593 30.7995C13.0824 30.9107 13.2325 30.9878 13.3947 31.0229C13.5568 31.058 13.7253 31.05 13.8834 30.9997C14.0415 30.9494 14.1837 30.8584 14.2956 30.736L22.3198 21.9841" stroke="#B3B5CE" stroke-width="2" stroke-linecap="round" stroke-linejoin="round"/>
<path d="M32.6734 17.451C32.6734 17.451 31.6677 22.7799 25.7202 22.7799C19.7728 22.7799 16.0244 15.4417 11.5446 15.4417C6.25266 15.4417 4.86279 19.8835 4.86279 22.7799C4.86279 25.2523 6.17581 26.257 7.91385 26.257C9.65189 26.257 12.8965 23.3207 14.2873 21.8142H21.9719" stroke="#B3B5CE" stroke-width="2" stroke-linecap="round" stroke-linejoin="round"/>
<path d="M11.5449 15.4418C11.5449 12.8926 9.49762 10.9221 6.29192 10.9221C3.08622 10.9221 1 12.5065 1 16.9863C1 21.4661 4.87359 22.3541 4.87359 22.3541" stroke="#B3B5CE" stroke-width="2" stroke-linecap="round" stroke-linejoin="round"/>
<path d="M3.61573 11.4401C2.40612 8.25049 5.40311 5.12828 10.0385 5.12828C17.0685 5.12828 17.7051 16.5413 24.4457 16.5413C30.0469 16.5413 33.8028 9.277 31.2441 5.09033C27.8449 -0.472918 22.1612 0.549794 19.7657 2.8286" stroke="#B3B5CE" stroke-width="2" stroke-linecap="round" stroke-linejoin="round"/>
<path d="M10.0381 5.12825C11.3132 0.840072 17.7056 0.705355 20.2358 3.23557C22.766 5.76579 22.6303 9.37659 19.0803 13.3318M28.0788 15.4417C30.7997 18.7432 37.4881 18.284 37.971 11.737C38.4539 5.18992 32.7218 5.29523 31.5767 5.73353" stroke="#B3B5CE" stroke-width="2" stroke-linecap="round" stroke-linejoin="round"/>
</svg>
