<svg width="38" height="34" viewBox="0 0 38 34" fill="none" xmlns="http://www.w3.org/2000/svg">
<path d="M11.9583 2.54764e-07C8.78679 3.02024e-07 5.74514 1.25989 3.50251 3.50252C1.25989 5.74514 0 8.78679 0 11.9583C0 15.1299 1.25989 18.1715 3.50251 20.4142C5.74514 22.6568 8.78679 23.9167 11.9583 23.9167H13.7862C13.6241 22.7835 13.6241 21.6331 13.7862 20.5H11.9583C9.69294 20.5 7.52034 19.6001 5.91846 17.9982C4.31659 16.3963 3.41667 14.2237 3.41667 11.9583C3.41667 9.69294 4.31659 7.52034 5.91846 5.91846C7.52034 4.31659 9.69294 3.41667 11.9583 3.41667H25.625C26.8918 3.41641 28.1427 3.69791 29.2873 4.24078C30.4318 4.78364 31.4413 5.57429 32.2425 6.55543C33.0438 7.53658 33.6168 8.68366 33.9201 9.91359C34.2233 11.1435 34.2492 12.4255 33.9958 13.6667C35.0023 14.6536 35.827 15.8101 36.4319 17.0833C37.2966 15.2604 37.686 13.2484 37.5639 11.2345C37.4417 9.2206 36.8121 7.27035 35.7334 5.56529C34.6548 3.86023 33.1623 2.4558 31.3949 1.48272C29.6275 0.509653 27.6426 -0.000416161 25.625 2.54764e-07H11.9583ZM17.0833 22.2083C17.0837 20.8765 17.3954 19.5633 17.9936 18.3734C18.5919 17.1835 19.4601 16.1501 20.5289 15.3555C21.5977 14.5609 22.8375 14.0273 24.1493 13.7972C25.461 13.5671 26.8084 13.6469 28.0838 14.0303C29.3593 14.4137 30.5274 15.09 31.4949 16.0052C32.4624 16.9204 33.2025 18.0492 33.656 19.3014C34.1096 20.5535 34.2641 21.8944 34.1072 23.2169C33.9502 24.5395 33.4862 25.807 32.7522 26.9182L37.0828 31.2505L34.6672 33.6661L30.3349 29.3355C29.0474 30.1865 27.5534 30.6727 26.0117 30.7426C24.47 30.8125 22.9382 30.4634 21.579 29.7323C20.2199 29.0013 19.0841 27.9157 18.2926 26.5909C17.501 25.2661 17.0831 23.7516 17.0833 22.2083Z" fill="#B3B5CE"/>
</svg>
