<svg width="20" height="21" viewBox="0 0 20 21" fill="none" xmlns="http://www.w3.org/2000/svg">
<path d="M10 0.245361C4.49 0.245361 0 4.73536 0 10.2454C0 15.7554 4.49 20.2454 10 20.2454C15.51 20.2454 20 15.7554 20 10.2454C20 4.73536 15.51 0.245361 10 0.245361ZM14.78 7.94536L9.11 13.6154C8.97 13.7554 8.78 13.8354 8.58 13.8354C8.38 13.8354 8.19 13.7554 8.05 13.6154L5.22 10.7854C4.93 10.4954 4.93 10.0154 5.22 9.72536C5.51 9.43536 5.99 9.43536 6.28 9.72536L8.58 12.0254L13.72 6.88536C14.01 6.59536 14.49 6.59536 14.78 6.88536C15.07 7.17536 15.07 7.64536 14.78 7.94536Z" fill="white"/>
</svg>
