<svg width="204" height="151" viewBox="0 0 204 151" fill="none" xmlns="http://www.w3.org/2000/svg">
<g filter="url(#filter0_d_117_380)">
<path d="M184 66.7974L151.328 106.388C150.836 106.982 149.932 107.085 149.305 106.62L110.549 77.6793C109.926 77.2105 109.817 76.3509 110.306 75.7547L148.641 29.2977C149.134 28.7042 150.038 28.6007 150.664 29.066L182.198 52.6144L182.776 57.1777L183.394 62.054L184 66.7974Z" fill="black"/>
</g>
<path d="M184 66.7974L151.328 106.388C150.836 106.982 149.932 107.085 149.305 106.62L110.549 77.6793C109.926 77.2105 109.817 76.3509 110.306 75.7547L148.641 29.2977C149.134 28.7042 150.038 28.6007 150.664 29.066L182.198 52.6144L182.776 57.1777L183.394 62.054L184 66.7974Z" fill="white"/>
<path d="M177 61.1728C177.031 61.4205 176.46 62.5622 184.101 68.7958L185 67.7563L177 61.1728Z" fill="#CECECE"/>
<path d="M177.474 59.4574C176.717 60.3859 176.885 61.7272 177.85 62.4569L185 67.843L183.086 52.5969L177.474 59.4574Z" fill="#EDEDED"/>
<path d="M133.094 82.059C133.25 81.8372 133.094 81.5472 132.781 81.5702C132.359 81.6089 131.934 81.6066 131.512 81.5634L130.938 81.4448C130.531 81.3999 130.451 81.1886 130.7 80.8109C131.142 80.7598 131.059 80.1796 130.617 80.2086C130.072 80.2445 129.344 80.2991 128.896 79.945C128.757 79.8236 128.641 79.684 128.551 79.5313C128.708 79.5258 128.863 79.5061 129.016 79.4724C129.142 79.4434 129.201 79.3291 129.23 79.2318C129.315 78.9571 129.306 78.7362 129.327 78.5246C131.309 78.2175 133.366 77.5085 134.86 76.501C135.151 76.3056 134.948 75.9482 134.614 75.9558C133.054 75.9942 131.448 76.2647 130.046 76.8943C129.551 77.1152 129.064 77.3882 128.815 77.8438C128.792 77.8912 128.772 77.9396 128.755 77.9888C128.297 78.0482 127.836 78.0824 127.374 78.0912C126.758 78.1072 126.143 78.036 125.552 77.8805C125.128 77.7619 124.484 77.5896 124.484 77.1442C125.584 77.2406 126.66 77.0811 126.866 76.1853C127.176 74.8374 124.715 75.647 123.96 76.478C123.452 76.3948 122.953 76.268 122.473 76.0992C122.06 75.9584 121.794 76.5172 122.207 76.6588C122.696 76.821 123.198 76.9485 123.71 77.0402C123.554 78.4905 126.517 78.7285 127.607 78.6952C127.931 78.685 128.265 78.6602 128.602 78.6244C128.562 78.9793 128.602 78.9426 128.011 78.9349C127.711 78.9349 127.517 79.1823 127.686 79.4161C127.998 79.8478 128.256 80.3724 128.785 80.6241C128.951 80.6989 129.13 80.7521 129.314 80.7819C129.269 80.8556 129.262 80.9422 129.293 81.0208C129.715 81.9439 130.993 82.1776 132.092 82.1947C131.325 82.899 130.295 83.3361 129.19 83.4257C127.509 83.5418 126.287 82.5121 125.206 81.5267C124.902 81.2494 124.344 81.6069 124.65 81.8867C125.83 82.9616 127.132 84.0588 128.944 84.0417C130.527 84.0229 132.253 83.2466 133.094 82.059ZM125.619 76.1231C126.299 76.0941 125.545 76.4763 125.283 76.5198C125.115 76.5452 124.943 76.5543 124.773 76.5471C124.913 76.3909 125.428 76.1316 125.618 76.1205L125.619 76.1231ZM129.858 77.686C130.271 77.3652 130.994 77.1741 131.516 77.0214C132.098 76.8543 132.696 76.7344 133.302 76.6631C132.168 77.2097 130.948 77.6069 129.683 77.8421C129.738 77.7873 129.796 77.7352 129.857 77.686H129.858Z" fill="#4684AF"/>
<path d="M157.641 43.8758L173.013 55.3732C173.61 55.8196 173.714 56.6425 173.246 57.2113C172.777 57.78 171.913 57.8792 171.317 57.4327L155.945 45.9353C155.348 45.4889 155.244 44.666 155.712 44.0972C156.181 43.5285 157.045 43.4293 157.641 43.8758Z" fill="#D2D4D8"/>
<path d="M173.27 67.807L144.065 45.1929C143.991 45.1352 143.978 45.0293 144.036 44.9558L145.488 43.1325C145.546 43.0594 145.653 43.0466 145.728 43.1038L174.935 65.7152C175.009 65.7732 175.022 65.879 174.963 65.9522L173.512 67.7765C173.484 67.8124 173.443 67.8358 173.397 67.8416C173.352 67.8473 173.306 67.8349 173.27 67.807Z" fill="#D2D4D8"/>
<path d="M170.271 72.5705L141.065 49.9571C140.991 49.8994 140.978 49.7936 141.036 49.7201L142.488 47.8969C142.546 47.8239 142.654 47.811 142.728 47.8682L171.935 70.4834C172.009 70.5411 172.022 70.647 171.964 70.7204L170.512 72.5446C170.453 72.6168 170.345 72.6284 170.271 72.5705Z" fill="#D2D4D8"/>
<path d="M166.273 76.3836L137.065 53.7688C136.991 53.7114 136.978 53.6058 137.036 53.5326L138.489 51.7084C138.547 51.6353 138.654 51.6225 138.729 51.6797L167.934 74.2945C167.97 74.3219 167.993 74.3623 167.999 74.4066C168.004 74.4509 167.992 74.4956 167.963 74.5306L166.512 76.3549C166.454 76.4273 166.347 76.4401 166.273 76.3836Z" fill="#D2D4D8"/>
<path d="M163.275 80.196L134.065 57.5813C133.991 57.5236 133.978 57.4177 134.036 57.3442L135.488 55.5199C135.546 55.4469 135.654 55.434 135.728 55.4912L164.935 78.1069C165.009 78.1646 165.022 78.2697 164.964 78.343L163.512 80.1673C163.454 80.2385 163.349 80.2513 163.275 80.196Z" fill="#D2D4D8"/>
<path d="M160.272 85.9123L131.065 63.2979C130.991 63.2402 130.978 63.1343 131.036 63.0608L132.488 61.2367C132.547 61.1639 132.654 61.1515 132.728 61.2089L161.935 83.8223C162.009 83.8803 162.022 83.9861 161.963 84.0594L160.512 85.8827C160.454 85.956 160.346 85.9692 160.272 85.9123Z" fill="#D2D4D8"/>
<path d="M157.272 88.7702L128.065 66.1562C127.991 66.0982 127.978 65.9924 128.037 65.9192L129.488 64.0959C129.547 64.0228 129.654 64.01 129.728 64.0672L158.935 86.6812C159.009 86.7389 159.022 86.8447 158.964 86.9182L157.512 88.7424C157.453 88.8152 157.346 88.8276 157.272 88.7702Z" fill="#D2D4D8"/>
<path d="M141.723 95.5165C140.291 94.4459 139.676 92.6586 140.166 90.988C140.656 89.3174 142.154 88.0925 143.96 87.8845C145.767 87.6765 147.528 88.5263 148.421 90.0377C149.314 91.5491 149.164 93.4244 148.041 94.7892C146.505 96.6506 143.679 96.976 141.723 95.5165ZM146.679 89.5001C145.148 88.3532 142.931 88.6065 141.727 90.0659C140.524 91.5252 140.789 93.6381 142.321 94.7851C143.852 95.9321 146.069 95.6789 147.272 94.2195C148.474 92.7596 148.208 90.6481 146.679 89.5001Z" fill="#D2D4D8"/>
<g filter="url(#filter1_d_117_380)">
<path d="M99.8682 75.3799L56.3897 104.004C56.2552 104.091 56.0736 104.057 55.9826 103.927L20.0498 52.1287C19.9597 51.9981 19.9952 51.8211 20.1292 51.7331L63.6106 23.1062C63.7447 23.0184 63.9264 23.0529 64.0167 23.1834L99.9495 74.9815C99.9935 75.0447 100.01 75.1224 99.9944 75.1973C99.9791 75.2722 99.9337 75.3379 99.8682 75.3799Z" fill="black"/>
</g>
<path d="M99.8682 75.3799L56.3897 104.004C56.2552 104.091 56.0736 104.057 55.9826 103.927L20.0498 52.1287C19.9597 51.9981 19.9952 51.8211 20.1292 51.7331L63.6106 23.1062C63.7447 23.0184 63.9264 23.0529 64.0167 23.1834L99.9495 74.9815C99.9935 75.0447 100.01 75.1224 99.9944 75.1973C99.9791 75.2722 99.9337 75.3379 99.8682 75.3799Z" fill="white"/>
<path d="M43.9165 44.6998L29.7713 54.4692C29.6836 54.5295 29.5648 54.5059 29.5054 54.4166L28.0327 52.1898C27.9737 52.1001 27.9967 51.9787 28.0842 51.918L42.2293 42.1486C42.317 42.0883 42.4359 42.1118 42.4952 42.2012L43.967 44.428C44.0262 44.5174 44.0036 44.6388 43.9165 44.6998Z" fill="#D2D4D8"/>
<path d="M67.9118 37.899L32.8247 60.1886C32.7341 60.2452 32.612 60.223 32.5504 60.1386L31.034 58.0249C30.973 57.9401 30.9963 57.8249 31.0862 57.767L66.1742 35.4784C66.2171 35.4499 66.2704 35.439 66.322 35.4483C66.3736 35.4575 66.4189 35.4861 66.4476 35.5274L67.9669 37.6411C68.0273 37.7267 68.0027 37.842 67.9118 37.899Z" fill="#D2D4D8"/>
<path d="M71.9132 43.6159L36.8282 65.9042C36.7852 65.9326 36.7318 65.9433 36.6802 65.9339C36.6286 65.9245 36.5834 65.8957 36.5548 65.8542L35.0356 63.7415C35.0051 63.7011 34.9935 63.6506 35.0035 63.6019C35.0136 63.5532 35.0444 63.5105 35.0887 63.4837L70.1738 41.1954C70.2167 41.167 70.2701 41.1563 70.3217 41.1657C70.3733 41.1751 70.4186 41.2039 70.4471 41.2453L71.9663 43.358C72.0271 43.4431 72.0034 43.5583 71.9132 43.6159Z" fill="#D2D4D8"/>
<path d="M76.9144 49.3319L41.8262 71.6214C41.7832 71.6498 41.7298 71.6606 41.6782 71.6511C41.6267 71.6417 41.5814 71.613 41.5529 71.5715L40.0337 69.4587C39.9729 69.3736 39.9966 69.2584 40.0868 69.2008L75.1711 46.9113C75.2616 46.8541 75.3842 46.8764 75.4454 46.9612L76.9636 49.075C76.9942 49.1149 77.0062 49.1648 76.9969 49.2133C76.9877 49.2617 76.9578 49.3045 76.9144 49.3319Z" fill="#D2D4D8"/>
<path d="M79.9135 54.0981L44.8287 76.3872C44.7382 76.4443 44.6156 76.422 44.5544 76.3372L43.0352 74.2235C43.0049 74.1831 42.9935 74.1329 43.0035 74.0844C43.0136 74.036 43.0442 73.9934 43.0883 73.9666L78.1732 51.6775C78.2162 51.6488 78.2699 51.6379 78.3217 51.6473C78.3735 51.6567 78.4189 51.6857 78.4475 51.7274L79.9667 53.8402C80.0269 53.9253 80.0033 54.0402 79.9135 54.0981Z" fill="#D2D4D8"/>
<path d="M83.9146 59.8587L58.798 76.3866C58.7091 76.4448 58.5885 76.4221 58.5283 76.3357L57.0346 74.1831C57.0049 74.1419 56.9936 74.0908 57.0035 74.0414C57.0133 73.992 57.0434 73.9487 57.0868 73.9214L82.2034 57.3935C82.2924 57.3353 82.4129 57.358 82.4731 57.4444L83.9669 59.5961C84.0267 59.6827 84.0033 59.8001 83.9146 59.8587Z" fill="#D2D4D8"/>
<path d="M87.9126 65.5288L52.8272 87.8214C52.737 87.8788 52.6145 87.8569 52.5529 87.7724L51.0337 85.6586C50.9729 85.5735 50.9966 85.4582 51.0868 85.4007L86.1722 63.1099C86.2628 63.0532 86.385 63.0755 86.4465 63.1598L87.9658 65.2737C87.9954 65.314 88.0064 65.3638 87.9964 65.4118C87.9864 65.4598 87.9562 65.502 87.9126 65.5288Z" fill="#D2D4D8"/>
<path d="M91.9136 71.2475L56.828 93.539C56.7376 93.5962 56.615 93.5739 56.5537 93.4891L55.0355 91.3761C55.0052 91.3358 54.9936 91.2856 55.0034 91.2371C55.0133 91.1887 55.0437 91.146 55.0876 91.1191L90.1732 68.8275C90.2637 68.7703 90.3863 68.7927 90.4475 68.8775L91.9667 70.9905C92.0269 71.0754 92.0032 71.1899 91.9136 71.2475Z" fill="#D2D4D8"/>
<g filter="url(#filter2_d_117_380)">
<path d="M65.223 76.4138C65.0326 76.4455 64.851 76.325 64.8163 76.144L53.0053 13.5385C52.972 13.3572 53.0985 13.1843 53.2887 13.1513L106.778 4.00495C106.968 3.97371 107.149 4.09344 107.184 4.2738L118.994 66.8803C119.028 67.0613 118.902 67.2345 118.712 67.2675L65.223 76.4138Z" fill="black"/>
</g>
<path d="M65.223 76.4138C65.0326 76.4455 64.851 76.325 64.8163 76.144L53.0053 13.5385C52.972 13.3572 53.0985 13.1843 53.2887 13.1513L106.778 4.00495C106.968 3.97371 107.149 4.09344 107.184 4.2738L118.994 66.8803C119.028 67.0613 118.902 67.2345 118.712 67.2675L65.223 76.4138Z" fill="white"/>
<path d="M71.2925 40.534L77.7469 39.4296L81.0262 56.8312L74.5718 57.9356L71.2925 40.534Z" fill="#D2D4D8"/>
<path d="M79.8855 43.9044L86.3399 42.8L88.7352 55.511L82.2809 56.6154L79.8855 43.9044Z" fill="#D2D4D8"/>
<path d="M88.2134 46.3616L94.6678 45.2572L96.3547 54.2091L89.9003 55.3135L88.2134 46.3616Z" fill="#D2D4D8"/>
<path d="M94.6394 39.0896L101.094 37.9852L103.908 52.9167L97.4532 54.0211L94.6394 39.0896Z" fill="#D2D4D8"/>
<path d="M86.8618 19.7256L60.6085 24.0085C60.5174 24.0219 60.4312 23.9667 60.4145 23.8843L60.0022 21.8014C59.9875 21.7187 60.0482 21.6404 60.139 21.6252L86.3923 17.3423C86.4834 17.329 86.5696 17.3841 86.5863 17.4666L86.9976 19.5485C87.013 19.6313 86.9526 19.71 86.8618 19.7256Z" fill="#D2D4D8"/>
<path d="M98.8639 22.5456L60.5999 28.7729C60.5101 28.7861 60.4251 28.7318 60.4086 28.6507L60.002 26.6024C59.988 26.5211 60.0477 26.4444 60.1369 26.429L98.4009 20.2008C98.4906 20.1881 98.5752 20.2422 98.5922 20.323L98.9978 22.3722C99.0124 22.4534 98.953 22.5302 98.8639 22.5456Z" fill="#D2D4D8"/>
<path d="M105.866 25.4441L62.6008 32.5845C62.5108 32.5974 62.4259 32.5424 62.4089 32.4602L62.0022 30.3763C61.9876 30.2935 62.0477 30.2152 62.1374 30.2L105.398 23.0595C105.488 23.0466 105.573 23.1016 105.59 23.1838L105.998 25.2669C106.012 25.3487 105.955 25.4268 105.866 25.4441Z" fill="#D2D4D8"/>
<path d="M69.4587 62.5492L97.6603 57.7238C98.3764 57.6012 99.0611 58.0551 99.1897 58.7374C99.3183 59.4198 98.842 60.0723 98.1259 60.1948L69.9244 65.0203C69.2083 65.1428 68.5235 64.689 68.3949 64.0066C68.2664 63.3243 68.7426 62.6718 69.4587 62.5492Z" fill="#D2D4D8"/>
<path d="M112.866 63.5592L69.6008 70.6997C69.5108 70.7126 69.4259 70.6576 69.4089 70.5754L69.0022 68.4915C68.9876 68.4087 69.0477 68.3304 69.1374 68.3151L112.398 61.1747C112.488 61.1618 112.573 61.2168 112.59 61.299L112.998 63.382C113.012 63.4639 112.955 63.542 112.866 63.5592Z" fill="#D2D4D8"/>
<path d="M85.8576 34.8491L63.6067 38.3018C63.5158 38.3145 63.4299 38.2621 63.4132 38.184L63.0021 36.2089C62.9879 36.1306 63.0483 36.0566 63.1385 36.0418L85.3942 32.5882C85.485 32.576 85.5706 32.6281 85.5877 32.706L85.9979 34.6819C86.0124 34.7615 85.9497 34.8362 85.8576 34.8491Z" fill="#D2D4D8"/>
<path d="M106.863 31.2242L87.6003 34.4902C87.5104 34.5035 87.4256 34.447 87.4086 34.3627L87.0023 32.2239C86.9872 32.1388 87.0475 32.0581 87.1374 32.043L106.4 28.7769C106.49 28.7632 106.575 28.8199 106.591 28.9045L106.998 31.0423C107.013 31.1276 106.953 31.2086 106.863 31.2242Z" fill="#D2D4D8"/>
<path d="M89.4324 15.8998L102.492 13.6652C103.208 13.5427 103.893 13.9965 104.021 14.6789C104.15 15.3612 103.674 16.0137 102.958 16.1363L89.898 18.3708C89.1819 18.4934 88.4972 18.0395 88.3686 17.3572C88.24 16.6748 88.7163 16.0223 89.4324 15.8998Z" fill="#D2D4D8"/>
<g opacity="0.2">
<path opacity="0.2" d="M140.74 90.6968L89.2404 74.76C89.1524 74.7329 89.0795 74.6739 89.0377 74.5961C88.9958 74.5184 88.9885 74.4281 89.0173 74.3453L109.819 14.708C109.879 14.5357 110.076 14.4419 110.26 14.4979L161.76 30.4348C161.943 30.4921 162.042 30.6777 161.983 30.8504L141.179 90.4849C141.119 90.6566 140.923 90.751 140.74 90.6968Z" fill="#3D3D3D"/>
<path opacity="0.2" d="M136.849 33.355L129.386 45.5195L115.264 49.9954C117.379 55.9156 123.392 59.8079 130.019 59.5463C136.645 59.2846 142.291 54.9319 143.873 48.8657C145.455 42.7995 142.592 36.4783 136.849 33.355Z" fill="#3D3D3D"/>
<path opacity="0.2" d="M136.064 31.0025C131.764 28.6622 126.507 28.4955 122.049 30.5579L128.606 43.1597L136.064 31.0025Z" fill="#3D3D3D"/>
<path opacity="0.2" d="M120.394 31.7559C113.666 34.8462 110.427 42.1657 112.833 48.8418L126.954 44.3659L120.394 31.7559Z" fill="#3D3D3D"/>
<path opacity="0.2" d="M119.85 64.1511L101.308 58.4121C101.27 58.401 101.239 58.3762 101.22 58.3432C101.202 58.3102 101.199 58.2717 101.211 58.2364L101.847 56.4127C101.859 56.3762 101.886 56.3459 101.923 56.3288C101.959 56.3118 102.001 56.3093 102.039 56.3222L120.581 62.0603C120.62 62.0714 120.652 62.0971 120.671 62.1314C120.689 62.1656 120.691 62.2054 120.677 62.2414L120.042 64.0651C120.029 64.1006 120.001 64.1297 119.965 64.1458C119.929 64.162 119.887 64.1639 119.85 64.1511Z" fill="#3D3D3D"/>
<path opacity="0.2" d="M128.181 71.157L99.9165 62.4098C99.8788 62.3986 99.8474 62.3737 99.8293 62.3405C99.8112 62.3073 99.808 62.2687 99.8204 62.2333L100.456 60.4096C100.468 60.3729 100.495 60.3425 100.531 60.3254C100.568 60.3082 100.61 60.3059 100.648 60.319L128.913 69.0662C128.99 69.0904 129.033 69.169 129.009 69.2428L128.372 71.0664C128.36 71.1029 128.333 71.1331 128.297 71.1502C128.261 71.1673 128.219 71.1698 128.181 71.157Z" fill="#3D3D3D"/>
<path opacity="0.2" d="M117.255 72.8638L98.3157 67.0007C98.2379 66.9769 98.195 66.8985 98.2196 66.8251L98.856 65.0014C98.8679 64.966 98.8943 64.9366 98.9293 64.9196C98.9643 64.9026 99.005 64.8995 99.0425 64.9108L117.982 70.774C118.06 70.7977 118.103 70.8768 118.078 70.9505L117.441 72.7742C117.416 72.8471 117.333 72.8871 117.255 72.8638Z" fill="#3D3D3D"/>
<path opacity="0.2" d="M131.622 69.9066L140.078 72.5237C140.681 72.7102 141.01 73.3268 140.815 73.9009C140.814 73.9033 140.813 73.9057 140.812 73.9081C140.611 74.486 139.957 74.8006 139.35 74.6124L130.893 71.9953C130.291 71.8088 129.961 71.1923 130.157 70.6182C130.158 70.6158 130.158 70.6134 130.159 70.611C130.361 70.0331 131.014 69.7185 131.622 69.9066Z" fill="#3D3D3D"/>
<path opacity="0.2" d="M123.501 62.9657L141.471 68.5271C142.073 68.7136 142.403 69.3302 142.207 69.9043C142.207 69.9067 142.206 69.909 142.205 69.9114C142.003 70.4894 141.35 70.8039 140.742 70.6158L122.773 65.0544C122.17 64.8679 121.841 64.2513 122.036 63.6772C122.037 63.6748 122.038 63.6725 122.039 63.6701C122.24 63.0921 122.894 62.7776 123.501 62.9657Z" fill="#3D3D3D"/>
</g>
<g filter="url(#filter3_d_117_380)">
<path d="M142.738 84.0257L91.2396 68.0887C91.0567 68.0314 90.9574 67.8456 91.0176 67.6731L111.821 8.03785C111.882 7.86554 112.079 7.77173 112.262 7.82778L163.76 23.7648C163.943 23.8221 164.043 24.0079 163.982 24.1804L143.179 83.8156C143.118 83.9879 142.921 84.0817 142.738 84.0257Z" fill="black"/>
</g>
<path d="M142.738 84.0257L91.2396 68.0887C91.0567 68.0314 90.9574 67.8456 91.0176 67.6731L111.821 8.03785C111.882 7.86554 112.079 7.77173 112.262 7.82778L163.76 23.7648C163.943 23.8221 164.043 24.0079 163.982 24.1804L143.179 83.8156C143.118 83.9879 142.921 84.0817 142.738 84.0257Z" fill="white"/>
<path d="M138.811 26.8691L131.616 39.2541L118 43.812C120.039 49.8401 125.837 53.8035 132.226 53.5371C138.615 53.2708 144.059 48.8387 145.584 42.662C147.109 36.4853 144.349 30.0491 138.811 26.8691Z" fill="#D2D4D8"/>
<path opacity="0.490782" d="M138 25.1032C137.048 24.5787 136.042 24.1488 134.998 23.8202C131.043 22.5755 126.735 22.8629 123 24.6205L130.017 38.3037L138 25.1032Z" fill="#005194"/>
<path d="M122.962 25.9163C115.743 29.018 112.268 36.366 114.849 43.0681L130 38.5749L122.962 25.9163Z" fill="#D2D4D8"/>
<path d="M123.141 57.3531L104.108 51.7809C104.068 51.7698 104.035 51.7449 104.016 51.7117C103.998 51.6785 103.995 51.64 104.009 51.605L104.662 49.834C104.675 49.7986 104.703 49.7692 104.74 49.7526C104.777 49.736 104.82 49.7337 104.86 49.7461L123.893 55.3184C123.932 55.3296 123.965 55.3546 123.984 55.3877C124.002 55.4208 124.005 55.4593 123.991 55.4942L123.338 57.2652C123.326 57.3008 123.298 57.3303 123.261 57.347C123.223 57.3636 123.18 57.3658 123.141 57.3531Z" fill="#D4E8E8"/>
<path d="M131.17 64.9767L103.104 56.5329C103.066 56.522 103.034 56.4972 103.016 56.4642C102.998 56.4312 102.995 56.3929 103.009 56.3581L103.641 54.5979C103.652 54.5627 103.68 54.5335 103.716 54.517C103.752 54.5005 103.793 54.4981 103.831 54.5105L131.897 62.9542C131.935 62.9649 131.966 62.9888 131.984 63.0207C132.002 63.0526 132.005 63.0897 131.993 63.1238L131.362 64.884C131.351 64.9204 131.324 64.9511 131.288 64.9687C131.251 64.9863 131.209 64.9892 131.17 64.9767Z" fill="#D4E8E8"/>
<path d="M119.16 66.882L100.104 61.274C100.066 61.2635 100.035 61.2398 100.016 61.2082C99.9983 61.1766 99.995 61.1398 100.007 61.106L100.647 59.3617C100.659 59.3266 100.686 59.2975 100.723 59.2811C100.759 59.2647 100.802 59.2625 100.84 59.2751L119.896 64.8822C119.975 64.9049 120.018 64.9805 119.993 65.0511L119.353 66.7954C119.341 66.8305 119.314 66.8596 119.277 66.876C119.241 66.8924 119.198 66.8946 119.16 66.882Z" fill="#D4E8E8"/>
<path d="M134.092 63.7031L142.496 66.3343C143.106 66.5254 143.438 67.1514 143.238 67.7327C143.037 68.314 142.38 68.6304 141.77 68.4394L133.366 65.8082C132.756 65.6172 132.424 64.9911 132.625 64.4098C132.825 63.8285 133.482 63.5121 134.092 63.7031Z" fill="#D4E8E8"/>
<path d="M144.162 64.0244L124.104 57.6328C124.066 57.6212 124.035 57.5953 124.016 57.5608C123.998 57.5264 123.995 57.4863 124.007 57.4496L124.648 55.5565C124.674 55.48 124.759 55.4379 124.838 55.4625L144.896 61.8541C144.934 61.8657 144.965 61.8916 144.984 61.9261C145.002 61.9605 145.005 62.0006 144.993 62.0374L144.352 63.9304C144.326 64.0069 144.241 64.049 144.162 64.0244Z" fill="#D4E8E8"/>
<g filter="url(#filter4_d_117_380)">
<path d="M144 54.0492V111.808C144 113.316 142.669 114.534 141.025 114.534H67.9822C66.3388 114.534 65 113.316 65 111.808V45.8024C65 44.2939 66.3407 43.0681 67.9822 43.0681H84.3909C85.411 43.0625 86.3646 43.5512 86.9239 44.3662L90.7077 50.0104C91.2634 50.8296 92.2189 51.3206 93.2407 51.3122H141.028C142.669 51.3186 144 52.5407 144 54.0492Z" fill="black"/>
</g>
<path d="M144 54.0492V111.808C144 113.316 142.669 114.534 141.025 114.534H67.9822C66.3388 114.534 65 113.316 65 111.808V45.8024C65 44.2939 66.3407 43.0681 67.9822 43.0681H84.3909C85.411 43.0625 86.3646 43.5512 86.9239 44.3662L90.7077 50.0104C91.2634 50.8296 92.2189 51.3206 93.2407 51.3122H141.028C142.669 51.3186 144 52.5407 144 54.0492Z" fill="url(#paint0_linear_117_380)"/>
<path d="M144 54.0492V111.808C144 113.316 142.669 114.534 141.025 114.534H67.9822C66.3388 114.534 65 113.316 65 111.808V45.8024C65 44.2939 66.3407 43.0681 67.9822 43.0681H84.3909C85.411 43.0625 86.3646 43.5512 86.9239 44.3662L90.7077 50.0104C91.2634 50.8296 92.2189 51.3206 93.2407 51.3122H141.028C142.669 51.3186 144 52.5407 144 54.0492Z" fill="#005194"/>
<path d="M137.45 52.5969H70.55C69.1417 52.5969 68 53.6848 68 55.0267V111.151C68 112.493 69.1417 113.581 70.55 113.581H137.45C138.858 113.581 140 112.493 140 111.151V55.0267C140 53.6848 138.858 52.5969 137.45 52.5969Z" fill="#EFEFEF"/>
<path d="M137.45 53.5498H70.55C69.1417 53.5498 68 54.6377 68 55.9796V112.104C68 113.446 69.1417 114.534 70.55 114.534H137.45C138.858 114.534 140 113.446 140 112.104V55.9796C140 54.6377 138.858 53.5498 137.45 53.5498Z" fill="white"/>
<path opacity="0.2" d="M144 55.4555V106.933L143.454 111.38C143.272 112.871 142.178 114.113 140.677 114.534H67.9822C66.3388 114.534 65 113.311 65 111.795V64.4959H77.7858C79.3501 64.4965 80.7649 63.6041 81.3848 62.2257L83.4054 57.7331C84.0184 56.3514 85.4321 55.4549 86.9967 55.4555H144Z" fill="#3D3D3D"/>
<path d="M144.681 112.177C144.451 114.064 142.792 115.487 140.822 115.487H68.0806C66.11 115.487 64.4512 114.065 64.2212 112.177L59.0267 69.6104C58.8969 68.5474 59.2446 67.4816 59.982 66.6817C60.7195 65.8818 61.7763 65.4242 62.886 65.4242H79.517C81.0693 65.4243 82.4727 64.5334 83.0865 63.1583L85.0889 58.6743C85.7027 57.2991 87.1061 56.4084 88.6584 56.4084H147.111C148.221 56.4076 149.279 56.8649 150.017 57.6648C150.755 58.4648 151.103 59.5311 150.973 60.5946L144.681 112.177Z" fill="#005194"/>
<defs>
<filter id="filter0_d_117_380" x="90" y="24.7749" width="114" height="118.136" filterUnits="userSpaceOnUse" color-interpolation-filters="sRGB">
<feFlood flood-opacity="0" result="BackgroundImageFix"/>
<feColorMatrix in="SourceAlpha" type="matrix" values="0 0 0 0 0 0 0 0 0 0 0 0 0 0 0 0 0 0 127 0" result="hardAlpha"/>
<feOffset dy="16"/>
<feGaussianBlur stdDeviation="10"/>
<feColorMatrix type="matrix" values="0 0 0 0 0 0 0 0 0 0 0 0 0 0 0 0 0 0 0.093482 0"/>
<feBlend mode="normal" in2="BackgroundImageFix" result="effect1_dropShadow_117_380"/>
<feBlend mode="normal" in="SourceGraphic" in2="effect1_dropShadow_117_380" result="shape"/>
</filter>
<filter id="filter1_d_117_380" x="0" y="19.0576" width="120" height="120.995" filterUnits="userSpaceOnUse" color-interpolation-filters="sRGB">
<feFlood flood-opacity="0" result="BackgroundImageFix"/>
<feColorMatrix in="SourceAlpha" type="matrix" values="0 0 0 0 0 0 0 0 0 0 0 0 0 0 0 0 0 0 127 0" result="hardAlpha"/>
<feOffset dy="16"/>
<feGaussianBlur stdDeviation="10"/>
<feColorMatrix type="matrix" values="0 0 0 0 0 0 0 0 0 0 0 0 0 0 0 0 0 0 0.093482 0"/>
<feBlend mode="normal" in2="BackgroundImageFix" result="effect1_dropShadow_117_380"/>
<feBlend mode="normal" in="SourceGraphic" in2="effect1_dropShadow_117_380" result="shape"/>
</filter>
<filter id="filter2_d_117_380" x="33" y="0" width="106" height="112.419" filterUnits="userSpaceOnUse" color-interpolation-filters="sRGB">
<feFlood flood-opacity="0" result="BackgroundImageFix"/>
<feColorMatrix in="SourceAlpha" type="matrix" values="0 0 0 0 0 0 0 0 0 0 0 0 0 0 0 0 0 0 127 0" result="hardAlpha"/>
<feOffset dy="16"/>
<feGaussianBlur stdDeviation="10"/>
<feColorMatrix type="matrix" values="0 0 0 0 0 0 0 0 0 0 0 0 0 0 0 0 0 0 0.093482 0"/>
<feBlend mode="normal" in2="BackgroundImageFix" result="effect1_dropShadow_117_380"/>
<feBlend mode="normal" in="SourceGraphic" in2="effect1_dropShadow_117_380" result="shape"/>
</filter>
<filter id="filter3_d_117_380" x="71" y="3.81155" width="113" height="116.23" filterUnits="userSpaceOnUse" color-interpolation-filters="sRGB">
<feFlood flood-opacity="0" result="BackgroundImageFix"/>
<feColorMatrix in="SourceAlpha" type="matrix" values="0 0 0 0 0 0 0 0 0 0 0 0 0 0 0 0 0 0 127 0" result="hardAlpha"/>
<feOffset dy="16"/>
<feGaussianBlur stdDeviation="10"/>
<feColorMatrix type="matrix" values="0 0 0 0 0 0 0 0 0 0 0 0 0 0 0 0 0 0 0.093482 0"/>
<feBlend mode="normal" in2="BackgroundImageFix" result="effect1_dropShadow_117_380"/>
<feBlend mode="normal" in="SourceGraphic" in2="effect1_dropShadow_117_380" result="shape"/>
</filter>
<filter id="filter4_d_117_380" x="45" y="39.068" width="119" height="111.466" filterUnits="userSpaceOnUse" color-interpolation-filters="sRGB">
<feFlood flood-opacity="0" result="BackgroundImageFix"/>
<feColorMatrix in="SourceAlpha" type="matrix" values="0 0 0 0 0 0 0 0 0 0 0 0 0 0 0 0 0 0 127 0" result="hardAlpha"/>
<feOffset dy="16"/>
<feGaussianBlur stdDeviation="10"/>
<feColorMatrix type="matrix" values="0 0 0 0 0.258824 0 0 0 0 0.6 0 0 0 0 0.882353 0 0 0 0.3 0"/>
<feBlend mode="normal" in2="BackgroundImageFix" result="effect1_dropShadow_117_380"/>
<feBlend mode="normal" in="SourceGraphic" in2="effect1_dropShadow_117_380" result="shape"/>
</filter>
<linearGradient id="paint0_linear_117_380" x1="104.5" y1="43.068" x2="104.5" y2="114.534" gradientUnits="userSpaceOnUse">
<stop stop-color="#7A62E4"/>
<stop offset="1" stop-color="#656EE4"/>
</linearGradient>
</defs>
</svg>
